<svg viewBox="0 0 600 400" xmlns="http://www.w3.org/2000/svg">
<g transform="translate(48, 364)">
<g>
<path d="M0,0 L0,0 L0.43158573,0 L0.8239179,0 L1.0329764,0 L1.151099,0 L1.9769975,0 L2.4106872,0 L2.449682,0 L2.4653957,0 L5.058384,0 L5.119938,0 L6.043038,0 L6.1206985,0 L6.1449747,0 L6.293784,0 L6.9522457,0 L8.135296,0 L8.550825,0 L9.339337,0 L10.194753,0 L10.561291,0 L10.601624,0 L10.61613,0 L11.062327,0 L11.763424,0 L12.016895,0 L12.436397,0 L12.5711975,0 L12.804901,0 L13.883891,0 L13.9289665,0 L16.368258,0 L16.580736,0 L18.644638,0 L18.698534,0 L18.756765,0 L19.357817,0 L19.622597,0 L19.739796,0 L19.912992,0 L20.708403,0 L20.942007,0 L20.953362,0 L21.09613,0 L21.282988,0 L22.375647,0 L22.685083,0 L23.189058,0 L23.228262,0 L23.485556,0 L23.678442,0 L23.774473,0 L24.145569,0 L25.321402,0 L25.486141,0 L26.469616,0 L26.772726,0 L26.910097,0 L26.995064,0 L27.080269,0 L27.237684,0 L27.385504,0 L27.658201,0 L28.573874,0 L28.867567,0 L28.925966,0 L29.404684,0 L29.527094,0 L30.564085,0 L31.529821,0 L32.060513,0 L32.312023,0 L32.402565,0 L34.54222,0 L35.26431,0 L35.73967,0 L35.88317,0 L36.239685,0 L36.492065,0 L36.708645,0 L36.716785,0 L36.743282,0 L36.812405,0 L37.23094,0 L37.246212,0 L37.69683,0 L38.00014,0 L38.594418,0 L39.98306,0 L40.824512,0 L41.226437,0 L41.776035,0 L42.67666,0 L42.9259,0 L43.489895,0 L44.15513,0 L44.253952,0 L44.607647,0 L45.162804,0 L45.940197,0 L45.96023,0 L46.033962,0 L47.06378,0 L47.366886,0 L47.399017,0 L48.08558,0 L48.23435,0 L48.966892,0 L49.0179,0 L49.020615,0 L49.218983,0 L49.361874,0 L49.7787,0 L50.4572,0 L51.031857,0 L51.487164,0 L51.590984,0 L52.032143,0 L52.231293,0 L52.236603,0 L52.605247,0 L53.669388,0 L54.7601,0 L54.89824,0 L55.181572,0 L55.30564,0 L55.42193,0 L55.693497,0 L56.281395,0 L57.31585,0 L57.587666,0 L57.908783,0 L58.24427,0 L58.51756,0 L58.76559,0 L58.782154,0 L59.16152,0 L60.032627,0 L60.03836,0 L60.267406,0 L62.84461,0 L62.946186,0 L62.949696,0 L63.15238,0 L63.99483,0 L65.18416,0 L65.877815,0 L67.22559,0 L68.037575,0 L68.86361,0 L68.94019,0 L69.849045,0 L69.92317,0 L70.48569,0 L71.39091,0 L71.47336,0 L71.96483,0 L72.65889,0 L72.98974,0 L73.48439,0 L73.60951,0 L73.64955,0 L74.21111,0 L74.63365,0 L74.903015,0 L75.044235,0 L75.06079,0 L75.322426,0 L77.8579,0 L77.8969,0 L77.98186,0 L78.232895,0 L79.35448,0 L82.76838,0 L82.8154,0 L82.8453,0 L83.87752,0 L83.88091,0 L83.9807,0 L84.14214,0 L84.361,0 L84.54665,0 L84.55543,0 L85.39517,0 L85.523766,0 L85.58595,0 L85.7516,0 L85.97644,0 L86.26039,0 L86.27416,0 L86.65398,0 L87.10301,0 L87.67455,0 L87.800514,0 L87.88868,0 L88.13437,0 L88.26296,0 L88.867645,0 L88.95678,0 L89.55312,0 L90.586494,0 L90.943924,0 L91.254,0 L92.298416,0 L92.75324,0 L92.75761,0 L92.91379,0 L93.42613,0 L95.457825,0 L97.47159,0 L97.66377,0 L98.49606,0 L98.93102,0 L99.239136,0 L99.638916,0 L99.74121,0 L100.00264,0 L100.18366,0 L101.15733,0 L101.300285,0 L102.19185,0 L102.20777,0 L102.23973,0 L102.33087,0 L102.776344,0 L103.1874,0 L103.67901,0 L103.70421,0 L105.8407,0 L105.90648,0 L106.547424,0 L106.7707,0 L106.8677,0 L107.015114,0 L108.34657,0 L108.738205,0 L109.65869,0 L109.858826,0 L111.42758,0 L113.39971,0 L113.62188,0 L114.15351,0 L114.48726,0 L114.51061,0 L114.89137,0 L116.04269,0 L116.5507,0 L117.0279,0 L117.10908,0 L117.31266,0 L117.70866,0 L120.37512,0 L120.38115,0 L120.81737,0 L121.201416,0 L121.35803,0 L121.63579,0 L122.5251,0 L122.97459,0 L123.551186,0 L124.51501,0 L124.97797,0 L125.80579,0 L125.92474,0 L126.28872,0 L126.64646,0 L126.68441,0 L127.05408,0 L127.16991,0 L127.51761,0 L127.53939,0 L127.550934,0 L128.9514,0 L129.34668,0 L129.51161,0 L130.15858,0 L130.23683,0 L130.8184,0 L131.3417,0 L131.67778,0 L131.7063,0 L132.19109,0 L132.33237,0 L132.56145,0 L133.17812,0 L133.33272,0 L133.74673,0 L133.94261,0 L133.9434,0 L134.42487,0 L134.81471,0 L135.10478,0 L135.22514,0 L135.70291,0 L136.27539,0 L136.31604,0 L136.86055,0 L139.22047,0 L139.50365,0 L140.08835,0 L140.23744,0 L140.62834,0 L142.6617,0 L142.97017,0 L144.2664,0 L144.6622,0 L145.02519,0 L145.27644,0 L145.49248,0 L145.93637,0 L145.94698,0 L145.99641,0 L146.33688,0 L146.37639,0 L147.16226,0 L147.45805,0 L147.48155,0 L147.97702,0 L148.97177,0 L149.00122,0 L149.12611,0 L150.04295,0 L150.24336,0 L150.317,0 L150.434,0 L150.90112,0 L151.1618,0 L151.64726,0 L152.18808,0 L152.28532,0 L153.97409,0 L154.04128,0 L154.94167,0 L155.07916,0 L155.21367,0 L155.84677,0 L156.30898,0 L156.80872,0 L157.38518,0 L157.77617,0 L158.30087,0 L158.47722,0 L158.50212,0 L159.31627,0 L160.54056,0 L160.69818,0 L160.77477,0 L161.98953,0 L162.12193,0 L162.45529,0 L162.50809,0 L162.82928,0 L162.89409,0 L163.6515,0 L163.67955,0 L163.79622,0 L163.8797,0 L164.45961,0 L165.12883,0 L165.77615,0 L165.77956,0 L165.86598,0 L166.1479,0 L166.31073,0 L168.6958,0 L168.9815,0 L169.28615,0 L169.701,0 L169.76056,0 L169.86093,0 L169.89743,0 L170.12488,0 L170.31584,0 L170.65694,0 L171.85382,0 L171.97945,0 L172.63878,0 L173.05186,0 L173.71005,0 L174.03441,0 L174.5329,0 L175.37634,0 L175.9806,0 L176.45442,0 L177.52594,0 L178.42686,0 L178.97464,0 L179.51909,0 L180.25731,0 L180.60995,0 L181.28105,0 L182.20218,0 L184.42928,0 L184.91365,0 L185.11841,0 L185.19156,0 L185.58339,0 L185.92113,0 L186.22372,0 L186.47751,0 L186.50749,0 L187.54672,0 L188.00381,0 L190.12196,0 L190.61755,0 L191.0078,0 L191.5673,0 L191.69623,0 L191.81834,0 L192.49072,0 L193.32399,0 L195.63074,0 L195.72029,0 L197.09818,0 L200.8309,0 L200.85353,0 L201.02652,0 L201.10681,0 L201.13017,0 L201.67332,0 L201.80228,0 L203.39769,0 L205.051,0 L205.4422,0 L206.11508,0 L206.40904,0 L206.51787,0 L208.16237,0 L208.70152,0 L208.79997,0 L209.26314,0 L211.55608,0 L211.75696,0 L213.74382,0 L213.77513,0 L214.56241,0 L215.24132,0 L215.41049,0 L215.63824,0 L215.84364,0 L215.99106,0 L216.62051,0 L216.89597,0 L216.99554,0 L217.43538,0 L217.47824,0 L219.20969,0 L219.29773,0 L219.7045,0 L220.10796,0 L220.49289,0 L221.0383,0 L221.69489,0 L222.44794,0 L222.9262,0 L223.16762,0 L223.72084,0 L224.01369,0 L224.06673,0 L225.4511,0 L225.53172,0 L225.57187,0 L225.82262,0 L226.58366,0 L226.99066,0 L228.31604,0 L229.35799,0 L229.53662,0 L230.79445,0 L231.6162,0 L232.34167,0 L232.47273,0 L232.4995,0 L233.06221,0 L233.41374,0 L234.28886,0 L235.98422,0 L236.67493,0 L237.3856,0 L237.99155,0 L238.1441,0 L238.26057,0 L238.32059,0 L238.37149,0 L238.74184,0 L238.92567,0 L239.76959,0 L240.1024,0 L240.93002,0 L243.28748,0 L244.17894,0 L244.7079,0 L245.74321,0 L246.25143,0 L246.64864,0 L247.89528,0 L248.98703,0 L249.92343,0 L250.53154,0 L251.04477,0 L251.10936,0 L251.15155,0 L251.50858,0 L252.64049,0 L253.79851,0 L253.87814,0 L254.07419,0 L254.2183,0 L254.97678,0 L255.26492,0 L255.51501,0 L255.76788,0 L255.94934,0 L256.9743,0 L258.22583,0 L259.20544,0 L259.51276,0 L259.60193,0 L260.37735,0 L260.61374,0 L260.67233,0 L260.8493,0 L261.45502,0 L262.02295,0 L262.82715,0 L262.91824,0 L263.00302,0 L263.47766,0 L263.58606,0 L264.839,0 L265.89352,0 L266.07654,0 L268.55896,0 L268.93817,0 L269.09216,0 L269.18954,0 L269.83987,0 L269.91333,0 L270.1693,0 L270.48755,0 L270.75015,0 L271.54922,0 L271.57578,0 L272.0773,0 L272.39252,0 L272.74805,0 L273.93277,0 L274.5013,0 L275.18985,0 L275.8953,0 L275.9211,0 L276.5095,0 L277.6627,0 L277.7902,0 L279.4699,0 L279.99106,0 L280.33417,0 L280.62772,0 L281.02164,0 L281.31525,0 L282.3722,0 L282.54193,0 L282.589,0 L282.97678,0 L284.66287,0 L285.0459,0 L285.71164,0 L286.62915,0 L287.2232,0 L287.49332,0 L288.83255,0 L289.46268,0 L290.35263,0 L290.4723,0 L291.66318,0 L291.82578,0 L291.84106,0 L292.5999,0 L292.89755,0 L293.85468,0 L295.7616,0 L295.7971,0 L296.02246,0 L296.50034,0 L296.89383,0 L297.99615,0 L298.03433,0 L299.50735,0 L299.92804,0 L299.9491,0 L300.02768,0 L300.17123,0 L300.72604,0 L300.79004,0 L300.959,0 L301.81808,0 L302.10245,0 L302.14792,0 L302.64035,0 L302.73117,0 L303.61252,0 L303.98615,0 L304.2653,0 L304.26746,0 L305.0591,0 L305.21146,0 L305.33667,0 L305.7419,0 L306.10464,0 L306.2066,0 L306.9355,0 L307.1983,0 L307.2438,0 L307.48892,0 L307.56302,0 L307.80505,0 L308.4291,0 L308.8069,0 L309.14777,0 L309.20956,0 L311.0931,0 L311.80847,0 L312.49963,0 L312.92593,0 L313.4009,0 L313.45532,0 L313.64532,0 L314.43448,0 L314.45908,0 L314.6755,0 L315.73486,0 L316.30875,0 L316.83325,0 L317.12396,0 L317.2077,0 L318.11316,0 L319.0404,0 L319.61343,0 L320.83206,0 L321.12473,0 L322.01617,0 L322.9604,0 L323.10895,0 L323.51566,0 L324.0819,0 L325.41135,0 L326.0747,0 L328.57098,0 L328.8406,0 L329.0541,0 L329.95316,0 L330.481,0 L330.93716,0 L331.01236,0 L332.16867,0 L333.63385,0 L335.21356,0 L335.2518,0 L335.60828,0 L336.60437,0 L337.12662,0 L337.2612,0 L337.7712,0 L338.36966,0 L338.61942,0 L338.9021,0 L339.05478,0 L339.263,0 L339.9621,0 L340.906,0 L341.68195,0 L342.0511,0 L343.1482,0 L343.40198,0 L343.44147,0 L343.90195,0 L344.69797,0 L344.72415,0 L344.73694,0 L344.7735,0 L344.97076,0 L345.56006,0 L346.3121,0 L347.04886,0 L347.68756,0 L348.86252,0 L350.6659,0 L351.55707,0 L351.617,0 L351.7531,0 L352.28665,0 L352.47064,0 L352.59106,0 L353.32825,0 L353.9597,0 L355.10754,0 L356.6894,0 L356.7221,0 L356.86606,0 L358.53867,0 L359.70807,0 L359.8139,0 L362.2001,0 L362.6798,0 L362.87775,0 L363.45663,0 L364.16397,0 L364.95,0 L365.60446,0 L365.8793,0 L365.9665,0 L366.57794,0 L367.51242,0 L368.65146,0 L369.01642,0 L369.23257,0 L369.54065,0 L369.97168,0 L370.09967,0 L370.5062,0 L371.43225,0 L371.6227,0 L372.1449,0 L372.47107,0 L373.45142,0 L373.56073,0 L373.91898,0 L375.6196,0 L375.63013,0 L375.79672,0 L375.8653,0 L376.75327,0 L378.35303,0 L379.01685,0 L380.76495,0 L381.18066,0 L381.50156,0 L383.2286,0 L383.97403,0 L383.99783,0 L384.4027,0 L384.40866,0 L384.85547,0 L388.35718,0 L388.92566,0 L389.68997,0 L390.2534,0 L391.22974,0 L393.10095,0 L393.43115,0 L394.0227,0 L395.31583,0 L395.56332,0 L395.98483,0 L396.0554,0 L396.44583,0 L398.01712,0 L398.21756,0 L399.24197,0 L399.79874,0 L400.00174,0 L401.28192,0 L401.33624,0 L401.7164,0 L402.21576,0 L402.59366,0 L402.66776,0 L402.82547,0 L402.97794,0 L403.68463,0 L404.0768,0 L404.32727,0 L408.40216,0 L408.4326,0 L408.49188,0 L409.13214,0 L410.43637,0 L411.51724,0 L412.1607,0 L414.26013,0 L414.52286,0 L414.69403,0 L415.02396,0 L415.82208,0 L417.5612,0 L418.0042,0 L418.01074,0 L418.15067,0 L418.5634,0 L418.697,0 L419.4151,0 L419.99884,0 L421.8934,0 L421.93906,0 L422.1739,0 L422.8628,0 L422.9321,0 L423.49698,0 L423.7741,0 L424.26083,0 L424.57504,0 L425.2816,0 L426.32288,0 L426.47446,0 L426.55475,0 L426.6584,0 L427.0149,0 L427.01846,0 L427.13943,0 L427.17712,0 L427.1966,0 L427.91876,0 L428.58316,0 L428.6465,0 L428.71967,0 L429.16006,0 L429.43774,0 L430.0842,0 L430.31317,0 L430.814,0 L431.9309,0 L432.54306,0 L434.15692,0 L434.76642,0 L435.9679,0 L436.7077,0 L436.86096,0 L437.07953,0 L437.13382,0 L437.29114,0 L437.8059,0 L438.38577,0 L438.533,0 L438.89365,0 L438.93524,0 L439.59134,0 L439.69125,0 L440.46127,0 L440.64584,0 L440.81055,0 L442.3343,0 L442.53186,0 L442.74277,0 L442.77902,0 L443.2443,0 L443.4076,0 L444.12735,0 L444.26395,0 L444.47742,0 L445.98752,0 L446.46338,0 L448.2431,0 L448.8424,0 L449.12125,0 L449.44336,0 L449.95416,0 L451.1859,0 L451.2017,0 L451.41666,0 L452.14532,0 L452.41898,0 L452.60443,0 L452.88675,0 L453.6768,0 L453.77325,0 L453.8433,0 L453.89316,0 L453.97678,0 L454.07617,0 L454.34473,0 L454.7058,0 L455.10303,0 L455.1308,0 L455.35025,0 L455.5905,0 L455.86774,0 L456.06296,0 L456.5266,0 L457.56308,0 L458.3502,0 L458.76517,0 L459.67703,0 L460.11688,0 L460.1656,0 L460.47205,0 L460.51895,0 L460.84067,0 L461.16046,0 L461.27844,0 L461.37622,0 L462.60342,0 L462.6785,0 L464.28592,0 L465.94986,0 L468.0285,0 L468.50418,0 L468.63422,0 L471.3756,0 L471.4069,0 L471.59,0 L472.51886,0 L473.43765,0 L473.68927,0 L474.1958,0 L474.3879,0 L474.80823,0 L475.81857,0 L475.9396,0 L476.16595,0 L476.65,0 L477.98114,0 L478.5792,-340 L478.7325,0 L479.1127,0 L479.36002,0 L479.50894,0 L479.66385,0 L479.80624,0 L480.69824,0 L481.58606,0 L483.49628,0 L483.80127,0 L483.83566,0 L483.90515,0 L484.65457,0 L484.79996,0 L485.22382,0 L485.41016,0 L486.46136,0 L486.5976,0 L486.7323,0 L487.0386,0 L487.57965,0 L487.75818,0 L488.14716,0 L488.64676,0 L489.4792,0 L490.70264,0 L491.31027,0 L491.4979,0 L491.6696,0 L492.132,0 L492.2328,0 L494.05478,0 L494.06454,0 L494.1962,0 L494.24463,0 L495.21454,0 L495.2462,0 L495.39743,0 L495.6195,0 L495.69305,0 L495.75757,0 L496.58786,0 L497.0327,0 L497.0773,0 L498.1315,0 L499.42413,0 L499.45694,0 L499.93716,0 L500.6347,0 L500.97488,0 L502.35294,0 L503.2224,0 L503.57257,0 L503.668,0 L504.85583,0 L504.98453,0 L505.72836,0 L506.14066,0 L506.29587,0 L507.95944,0 L508.10742,0 L508.7223,0 L509.15314,0 L509.1775,0 L509.79572,0 L510.32697,0 L510.50766,0 L511.03253,0 L511.2726,0 L511.6062,0 L512.3252,0 L512.5333,0 L512.61615,0 L513.18964,0 L513.5779,0 L514.0242,0 L515.19574,0 L515.9038,0 L516.6653,0 L516.88477,0 L517.7172,0 L518.3405,0 L519.0292,0 L519.13873,0 L519.2617,0 L519.5852,0 L519.63336,0 L520,0" fill="none" stroke="burlywood" stroke-width="2"/>
</g>
<g>
<g>
<line stroke="black" stroke-width="1" x1="52.00976339498919" x2="52.00976339498919" y1="0" y2="10"/>
<line stroke="black" stroke-width="1" x1="156.08074621865018" x2="156.08074621865018" y1="0" y2="10"/>
<line stroke="black" stroke-width="1" x1="260.1517290423112" x2="260.1517290423112" y1="0" y2="10"/>
<line stroke="black" stroke-width="1" x1="364.22271186597214" x2="364.22271186597214" y1="0" y2="10"/>
<line stroke="black" stroke-width="1" x1="468.2936946896332" x2="468.2936946896332" y1="0" y2="10"/>
</g>
<line stroke="black" stroke-width="1" x1="0" x2="520" y1="0" y2="0"/>
<g>
<text font-size="12" text-anchor="middle" x="52.00976339498919" y="20">
-0.8
</text>
<text font-size="12" text-anchor="middle" x="156.08074621865018" y="20">
-0.4
</text>
<text font-size="12" text-anchor="middle" x="260.1517290423112" y="20">
0
</text>
<text font-size="12" text-anchor="middle" x="364.22271186597214" y="20">
0.4
</text>
<text font-size="12" text-anchor="middle" x="468.2936946896332" y="20">
0.8
</text>
</g>
<text font-size="12" text-anchor="middle" x="260" y="30">

</text>
</g>
<g>
<g>
<line stroke="black" stroke-width="1" x1="0" x2="-10" y1="0" y2="0"/>
<line stroke="black" stroke-width="1" x1="0" x2="-10" y1="-77.69271719734597" y2="-77.69271719734597"/>
<line stroke="black" stroke-width="1" x1="0" x2="-10" y1="-155.38543439469194" y2="-155.38543439469194"/>
<line stroke="black" stroke-width="1" x1="0" x2="-10" y1="-233.0781515920379" y2="-233.0781515920379"/>
<line stroke="black" stroke-width="1" x1="0" x2="-10" y1="-310.7708687893839" y2="-310.7708687893839"/>
</g>
<line stroke="black" stroke-width="1" x1="0" x2="0" y1="0" y2="-340"/>
<g>
<text dominant-baseline="middle" font-size="12" text-anchor="end" x="-15" y="0">
0
</text>
<text dominant-baseline="middle" font-size="12" text-anchor="end" x="-15" y="-77.69271719734597">
2
</text>
<text dominant-baseline="middle" font-size="12" text-anchor="end" x="-15" y="-155.38543439469194">
4
</text>
<text dominant-baseline="middle" font-size="12" text-anchor="end" x="-15" y="-233.0781515920379">
6
</text>
<text dominant-baseline="middle" font-size="12" text-anchor="end" x="-15" y="-310.7708687893839">
8
</text>
</g>
<text font-size="12" text-anchor="middle" transform="rotate(-90 -30 -170)" x="-30" y="-170">

</text>
</g>
</g>
</svg>